<?xml version="1.0" encoding="UTF-8" standalone="no"?>
<!DOCTYPE svg PUBLIC "-//W3C//DTD SVG 1.1//EN"
 "http://www.w3.org/Graphics/SVG/1.1/DTD/svg11.dtd">
<!-- Generated by graphviz version 14.1.5 (20260411.2331)
 -->
<!-- Title: JobLifecycle Pages: 1 -->
<svg width="855pt" height="221pt"
 viewBox="0.00 0.00 855.00 221.00" xmlns="http://www.w3.org/2000/svg" xmlns:xlink="http://www.w3.org/1999/xlink">
<g id="graph0" class="graph" transform="scale(1 1) rotate(0) translate(4 217)">
<title>JobLifecycle</title>
<!-- pending -->
<g id="node1" class="node">
<title>pending</title>
<path fill="#3b82f6" stroke="black" d="M353.75,-213C353.75,-213 312.25,-213 312.25,-213 306.25,-213 300.25,-207 300.25,-201 300.25,-201 300.25,-189 300.25,-189 300.25,-183 306.25,-177 312.25,-177 312.25,-177 353.75,-177 353.75,-177 359.75,-177 365.75,-183 365.75,-189 365.75,-189 365.75,-201 365.75,-201 365.75,-207 359.75,-213 353.75,-213"/>
<text xml:space="preserve" text-anchor="middle" x="333" y="-190.7" font-family="TT Commons Pro Trial" font-size="14.00" fill="white">pending</text>
</g>
<!-- running -->
<g id="node2" class="node">
<title>running</title>
<path fill="#f59e0b" stroke="black" d="M351.5,-124.5C351.5,-124.5 314.5,-124.5 314.5,-124.5 308.5,-124.5 302.5,-118.5 302.5,-112.5 302.5,-112.5 302.5,-100.5 302.5,-100.5 302.5,-94.5 308.5,-88.5 314.5,-88.5 314.5,-88.5 351.5,-88.5 351.5,-88.5 357.5,-88.5 363.5,-94.5 363.5,-100.5 363.5,-100.5 363.5,-112.5 363.5,-112.5 363.5,-118.5 357.5,-124.5 351.5,-124.5"/>
<text xml:space="preserve" text-anchor="middle" x="333" y="-102.2" font-family="TT Commons Pro Trial" font-size="14.00" fill="white">running</text>
</g>
<!-- pending&#45;&gt;running -->
<g id="edge1" class="edge">
<title>pending&#45;&gt;running</title>
<path fill="none" stroke="#94a3b8" d="M333,-176.91C333,-165.26 333,-149.55 333,-136.02"/>
<polygon fill="#94a3b8" stroke="#94a3b8" points="336.5,-136.36 333,-126.36 329.5,-136.36 336.5,-136.36"/>
<text xml:space="preserve" text-anchor="middle" x="385.5" y="-145.7" font-family="Times,serif" font-size="14.00" fill="#94a3b8">job.accepted (§7.1)</text>
</g>
<!-- success -->
<g id="node3" class="node">
<title>success</title>
<path fill="none" stroke="black" d="M52,-36C52,-36 12,-36 12,-36 6,-36 0,-30 0,-24 0,-24 0,-12 0,-12 0,-6 6,0 12,0 12,0 52,0 52,0 58,0 64,-6 64,-12 64,-12 64,-24 64,-24 64,-30 58,-36 52,-36"/>
<text xml:space="preserve" text-anchor="middle" x="32" y="-13.7" font-family="TT Commons Pro Trial" font-size="14.00" fill="#f1f5f9">success</text>
</g>
<!-- running&#45;&gt;success -->
<g id="edge2" class="edge">
<title>running&#45;&gt;success</title>
<path fill="none" stroke="#94a3b8" d="M302.46,-105.85C236.82,-105.96 85.21,-102.63 47.25,-70.5 40.5,-64.78 36.66,-56.23 34.49,-47.73"/>
<polygon fill="#94a3b8" stroke="#94a3b8" points="37.95,-47.16 32.74,-37.93 31.06,-48.39 37.95,-47.16"/>
<text xml:space="preserve" text-anchor="middle" x="91.12" y="-57.2" font-family="Times,serif" font-size="14.00" fill="#94a3b8">job.result (§7.3)</text>
</g>
<!-- error -->
<g id="node4" class="node">
<title>error</title>
<path fill="none" stroke="black" d="M265,-36C265,-36 235,-36 235,-36 229,-36 223,-30 223,-24 223,-24 223,-12 223,-12 223,-6 229,0 235,0 235,0 265,0 265,0 271,0 277,-6 277,-12 277,-12 277,-24 277,-24 277,-30 271,-36 265,-36"/>
<text xml:space="preserve" text-anchor="middle" x="250" y="-13.7" font-family="TT Commons Pro Trial" font-size="14.00" fill="#f1f5f9">error</text>
</g>
<!-- running&#45;&gt;error -->
<g id="edge3" class="edge">
<title>running&#45;&gt;error</title>
<path fill="none" stroke="#94a3b8" d="M302.01,-104.39C253.65,-101.94 163.74,-94.23 144,-70.5 122.33,-44.44 173.08,-30.55 211.61,-23.98"/>
<polygon fill="#94a3b8" stroke="#94a3b8" points="211.75,-27.5 221.09,-22.48 210.66,-20.59 211.75,-27.5"/>
<text xml:space="preserve" text-anchor="middle" x="186" y="-57.2" font-family="Times,serif" font-size="14.00" fill="#94a3b8">job.error (§7.3)</text>
</g>
<!-- running&#45;&gt;error -->
<g id="edge6" class="edge">
<title>running&#45;&gt;error</title>
<path fill="none" stroke="#94a3b8" d="M302.2,-100.65C284.24,-96.09 262.93,-87.31 251.5,-70.5 246.97,-63.84 245.44,-55.5 245.36,-47.47"/>
<polygon fill="#94a3b8" stroke="#94a3b8" points="248.84,-47.91 246.01,-37.7 241.86,-47.45 248.84,-47.91"/>
<text xml:space="preserve" text-anchor="middle" x="322.75" y="-57.2" font-family="Times,serif" font-size="14.00" fill="#94a3b8">LEASE_EXPIRED (§9.5)</text>
</g>
<!-- running&#45;&gt;error -->
<g id="edge7" class="edge">
<title>running&#45;&gt;error</title>
<path fill="none" stroke="#94a3b8" d="M363.61,-94.15C384.61,-84.62 406.59,-70.02 394,-54 381.1,-37.59 326.73,-27.93 288.62,-23.04"/>
<polygon fill="#94a3b8" stroke="#94a3b8" points="289.23,-19.59 278.89,-21.86 288.39,-26.54 289.23,-19.59"/>
<text xml:space="preserve" text-anchor="middle" x="487.31" y="-57.2" font-family="Times,serif" font-size="14.00" fill="#94a3b8">BUDGET_EXHAUSTED (§9.6)</text>
</g>
<!-- cancelled -->
<g id="node5" class="node">
<title>cancelled</title>
<path fill="none" stroke="black" d="M643.25,-36C643.25,-36 592.75,-36 592.75,-36 586.75,-36 580.75,-30 580.75,-24 580.75,-24 580.75,-12 580.75,-12 580.75,-6 586.75,0 592.75,0 592.75,0 643.25,0 643.25,0 649.25,0 655.25,-6 655.25,-12 655.25,-12 655.25,-24 655.25,-24 655.25,-30 649.25,-36 643.25,-36"/>
<text xml:space="preserve" text-anchor="middle" x="618" y="-13.7" font-family="TT Commons Pro Trial" font-size="14.00" fill="#f1f5f9">cancelled</text>
</g>
<!-- running&#45;&gt;cancelled -->
<g id="edge4" class="edge">
<title>running&#45;&gt;cancelled</title>
<path fill="none" stroke="#94a3b8" d="M363.69,-104.15C421.74,-101.13 545,-92.27 581,-70.5 590.62,-64.68 598.45,-55.32 604.39,-46.16"/>
<polygon fill="#94a3b8" stroke="#94a3b8" points="607.26,-48.17 609.32,-37.78 601.23,-44.62 607.26,-48.17"/>
<text xml:space="preserve" text-anchor="middle" x="644.7" y="-57.2" font-family="Times,serif" font-size="14.00" fill="#94a3b8">job.cancel (§7.4)</text>
</g>
<!-- timed_out -->
<g id="node6" class="node">
<title>timed_out</title>
<path fill="none" stroke="black" d="M758.25,-36C758.25,-36 707.75,-36 707.75,-36 701.75,-36 695.75,-30 695.75,-24 695.75,-24 695.75,-12 695.75,-12 695.75,-6 701.75,0 707.75,0 707.75,0 758.25,0 758.25,0 764.25,0 770.25,-6 770.25,-12 770.25,-12 770.25,-24 770.25,-24 770.25,-30 764.25,-36 758.25,-36"/>
<text xml:space="preserve" text-anchor="middle" x="733" y="-13.7" font-family="TT Commons Pro Trial" font-size="14.00" fill="#f1f5f9">timed_out</text>
</g>
<!-- running&#45;&gt;timed_out -->
<g id="edge5" class="edge">
<title>running&#45;&gt;timed_out</title>
<path fill="none" stroke="#94a3b8" d="M363.95,-105.69C440.92,-105.65 638.77,-102.38 695,-70.5 704.94,-64.87 713.02,-55.45 719.14,-46.2"/>
<polygon fill="#94a3b8" stroke="#94a3b8" points="722.09,-48.09 724.22,-37.71 716.08,-44.49 722.09,-48.09"/>
<text xml:space="preserve" text-anchor="middle" x="780.17" y="-57.2" font-family="Times,serif" font-size="14.00" fill="#94a3b8">max_runtime_sec (§7.3)</text>
</g>
</g>
</svg>
